<svg xmlns="http://www.w3.org/2000/svg" width="740" height="268" viewBox="0 0 740 268" role="img" aria-labelledby="t-client-server-roles d-client-server-roles">
  <title id="t-client-server-roles">客户端与服务器：要的一方与给的一方</title>
  <desc id="d-client-server-roles">两个并列方框。左边是客户端，即发出请求的一方：发出请求（request）「请把这个页面给我」；最常见的是浏览器，手机 App、命令行工具也算；收到响应后把它渲染成你看到的页面。右边是服务器，即提供服务的一方：长期运行的专用机器，随时等待请求；存储网页文件与数据；收到请求后处理，把内容作为响应（response）发回。底部注释用点餐打比方：客户端点单，服务器上菜；两个角色是相对的。</desc>
  <defs>
    <marker id="arr" viewBox="0 0 10 10" refX="9" refY="5" markerWidth="7" markerHeight="7" orient="auto-start-reverse">
      <path d="M0,0 L10,5 L0,10 z" fill="#276148"/>
    </marker>
    <marker id="arrm" viewBox="0 0 10 10" refX="9" refY="5" markerWidth="7" markerHeight="7" orient="auto-start-reverse">
      <path d="M0,0 L10,5 L0,10 z" fill="#68706a"/>
    </marker>
  </defs>
  <style>
    text { font-family: "PingFang SC", "Microsoft YaHei", system-ui, sans-serif; fill: #2f3430; }
    .h { font-size: 15px; font-weight: 700; }
    .hb { font-size: 13.5px; font-weight: 700; fill: #276148; }
    .b { font-size: 13.5px; }
    .s { font-size: 12.5px; fill: #68706a; }
    .box { fill: #f4f5f2; stroke: #c9cec8; stroke-width: 1.5; }
    .accentbox { fill: #e8eee9; stroke: #a9bcb0; stroke-width: 1.5; }
    .head { fill: #e8eee9; stroke: #276148; stroke-width: 1.5; }
    .chip { fill: #fbfbfa; stroke: #c9cec8; stroke-width: 1.25; }
    .note { fill: #f4f5f2; stroke: #c9cec8; stroke-width: 1.5; }
    .edge { stroke: #276148; stroke-width: 2; fill: none; }
    .dash { stroke: #68706a; stroke-width: 2; fill: none; stroke-dasharray: 5 5; }
    .life { stroke: #c9cec8; stroke-width: 1.5; stroke-dasharray: 5 5; fill: none; }
    .spoke { stroke: #8b918b; stroke-width: 1.5; fill: none; }
    .divider { stroke: #c9cec8; stroke-width: 1.5; fill: none; }
    .outline { fill: none; stroke: #c9cec8; stroke-width: 1.5; }
  </style>

  <rect class="box" x="22" y="22" width="335" height="158" rx="8"/>
  <path class="divider" d="M22,62 L357,62"/>
  <rect class="head" x="22" y="22" width="335" height="40" rx="8"/>
  <rect class="head" x="22" y="48" width="335" height="14" rx="0"/>
  <path class="divider" d="M22,62 L357,62"/>
  <text class="hb" x="190" y="47" text-anchor="middle"><tspan x="190">客户端 · 发出请求的一方</tspan></text>
  <circle cx="42" cy="82" r="2.5" fill="#276148"/>
  <text class="b" x="52" y="86" text-anchor="start"><tspan x="52">发出请求（request）：「请把这个页面给我」</tspan></text>
  <circle cx="42" cy="112" r="2.5" fill="#276148"/>
  <text class="b" x="52" y="116" text-anchor="start"><tspan x="52">最常见的是浏览器；手机 App、命令行工具也算</tspan></text>
  <circle cx="42" cy="142" r="2.5" fill="#276148"/>
  <text class="b" x="52" y="146" text-anchor="start"><tspan x="52">收到响应后，把它渲染成你看到的页面</tspan></text>
  <rect class="box" x="383" y="22" width="335" height="158" rx="8"/>
  <path class="divider" d="M383,62 L718,62"/>
  <rect class="head" x="383" y="22" width="335" height="40" rx="8"/>
  <rect class="head" x="383" y="48" width="335" height="14" rx="0"/>
  <path class="divider" d="M383,62 L718,62"/>
  <text class="hb" x="551" y="47" text-anchor="middle"><tspan x="551">服务器 · 提供服务的一方</tspan></text>
  <circle cx="403" cy="82" r="2.5" fill="#276148"/>
  <text class="b" x="413" y="86" text-anchor="start"><tspan x="413">长期运行的专用机器，随时等待请求</tspan></text>
  <circle cx="403" cy="112" r="2.5" fill="#276148"/>
  <text class="b" x="413" y="116" text-anchor="start"><tspan x="413">存储网页文件与数据</tspan></text>
  <circle cx="403" cy="142" r="2.5" fill="#276148"/>
  <text class="b" x="413" y="146" text-anchor="start"><tspan x="413">收到请求后处理，把内容作为响应（response）</tspan><tspan x="413" dy="18">发回</tspan></text>
  <rect class="note" x="22" y="194" width="696" height="52" rx="6"/>
  <text class="s" x="370" y="216" text-anchor="middle"><tspan x="370">点餐比方：客户端点单，服务器上菜。两个角色是相对的——同一台设备在这次通信里是客户端，在另一次通信里可能就是</tspan><tspan x="370" dy="18">服务器。</tspan></text>
</svg>
