<svg xmlns="http://www.w3.org/2000/svg" width="740" height="250" viewBox="0 0 740 250" role="img" aria-labelledby="t-dev-vs-prod-mode d-dev-vs-prod-mode">
  <title id="t-dev-vs-prod-mode">两种 mode：为开发调优，还是为部署调优</title>
  <desc id="d-dev-vs-prod-mode">左右两栏对比图。左栏「development 模式」：为开发体验调优，代码可读、报错好定位；配合 webpack serve 改动自动重建，不用手动重打包；开发期一直用它，产物不拿去部署。右栏「production 模式」：为部署产物调优，做压缩、摇树等优化；bundle 变成「更加华丽的一团乱码」——体积更小、加载更快；每次手改模式太蠢，用两份配置文件各管各的。图下说明：官方口径——真的不需要知道每项优化细节，知道两种模式存在、各为特定目的设计就很好；build 与 dev 两个 npm script 用 --config 各指一份配置，webpack-merge 管公共部分。</desc>
  <defs>
    <marker id="arr" viewBox="0 0 10 10" refX="9" refY="5" markerWidth="7" markerHeight="7" orient="auto-start-reverse">
      <path d="M0,0 L10,5 L0,10 z" fill="#276148"/>
    </marker>
    <marker id="arrm" viewBox="0 0 10 10" refX="9" refY="5" markerWidth="7" markerHeight="7" orient="auto-start-reverse">
      <path d="M0,0 L10,5 L0,10 z" fill="#68706a"/>
    </marker>
  </defs>
  <style>
    text { font-family: "PingFang SC", "Microsoft YaHei", system-ui, sans-serif; fill: #2f3430; }
    .h { font-size: 15px; font-weight: 700; }
    .hb { font-size: 13.5px; font-weight: 700; fill: #276148; }
    .b { font-size: 13.5px; }
    .s { font-size: 12.5px; fill: #68706a; }
    .box { fill: #f4f5f2; stroke: #c9cec8; stroke-width: 1.5; }
    .accentbox { fill: #e8eee9; stroke: #a9bcb0; stroke-width: 1.5; }
    .head { fill: #e8eee9; stroke: #276148; stroke-width: 1.5; }
    .chip { fill: #fbfbfa; stroke: #c9cec8; stroke-width: 1.25; }
    .note { fill: #f4f5f2; stroke: #c9cec8; stroke-width: 1.5; }
    .edge { stroke: #276148; stroke-width: 2; fill: none; }
    .dash { stroke: #68706a; stroke-width: 2; fill: none; stroke-dasharray: 5 5; }
    .life { stroke: #c9cec8; stroke-width: 1.5; stroke-dasharray: 5 5; fill: none; }
    .spoke { stroke: #8b918b; stroke-width: 1.5; fill: none; }
    .divider { stroke: #c9cec8; stroke-width: 1.5; fill: none; }
    .outline { fill: none; stroke: #c9cec8; stroke-width: 1.5; }
  </style>

  <rect class="box" x="22" y="22" width="335" height="140" rx="8"/>
  <path class="divider" d="M22,62 L357,62"/>
  <rect class="head" x="22" y="22" width="335" height="40" rx="8"/>
  <rect class="head" x="22" y="48" width="335" height="14" rx="0"/>
  <path class="divider" d="M22,62 L357,62"/>
  <text class="hb" x="190" y="47" text-anchor="middle"><tspan x="190">development 模式 · 为开发调优</tspan></text>
  <circle cx="42" cy="82" r="2.5" fill="#276148"/>
  <text class="b" x="52" y="86" text-anchor="start"><tspan x="52">代码可读、报错好定位</tspan></text>
  <circle cx="42" cy="112" r="2.5" fill="#276148"/>
  <text class="b" x="52" y="116" text-anchor="start"><tspan x="52">配合 webpack serve：改动自动重建</tspan></text>
  <circle cx="42" cy="142" r="2.5" fill="#276148"/>
  <text class="b" x="52" y="146" text-anchor="start"><tspan x="52">开发期一直用它，产物不拿去部署</tspan></text>
  <rect class="box" x="383" y="22" width="335" height="140" rx="8"/>
  <path class="divider" d="M383,62 L718,62"/>
  <rect class="head" x="383" y="22" width="335" height="40" rx="8"/>
  <rect class="head" x="383" y="48" width="335" height="14" rx="0"/>
  <path class="divider" d="M383,62 L718,62"/>
  <text class="hb" x="551" y="47" text-anchor="middle"><tspan x="551">production 模式 · 为部署调优</tspan></text>
  <circle cx="403" cy="82" r="2.5" fill="#276148"/>
  <text class="b" x="413" y="86" text-anchor="start"><tspan x="413">压缩、摇树等部署向优化</tspan></text>
  <circle cx="403" cy="112" r="2.5" fill="#276148"/>
  <text class="b" x="413" y="116" text-anchor="start"><tspan x="413">bundle 变成「更加华丽的一团乱码」</tspan></text>
  <circle cx="403" cy="142" r="2.5" fill="#276148"/>
  <text class="b" x="413" y="146" text-anchor="start"><tspan x="413">体积更小、加载更快</tspan></text>
  <rect class="note" x="22" y="176" width="696" height="52" rx="6"/>
  <text class="s" x="370" y="198" text-anchor="middle"><tspan x="370">官方口径：真的不需要知道优化细节——知道两种模式存在、各为特定目的设计就很好。两份配置文件 + build / dev 两</tspan><tspan x="370" dy="18">个 npm script（--config 各指一份），webpack-merge 管公共部分。</tspan></text>
</svg>
