<svg xmlns="http://www.w3.org/2000/svg" width="740" height="232" viewBox="0 0 740 232" role="img" aria-labelledby="t-svg-link-vs-inline d-svg-link-vs-inline">
  <title id="t-svg-link-vs-inline">链接还是内联：两种嵌入方式的取舍</title>
  <desc id="d-svg-link-vs-inline">对比图。左列标题「链接（img / background-image）」：和链接普通图片一样，干净、简单；页面正常缓存；但 SVG 内容对网页代码不可见——不能动态改。右列标题「内联（代码直接贴进 HTML）」：属性对 CSS / JavaScript 可见，可动态改图；代价是代码更难读、页面缓存性变差；大 SVG 可能延迟后续 HTML 加载。底部注释：官方建议默认链接，只有要随 HTML 一起调 SVG 代码时才内联——学了 React / webpack 之后内联的缺点可以规避。</desc>
  <defs>
    <marker id="arr" viewBox="0 0 10 10" refX="9" refY="5" markerWidth="7" markerHeight="7" orient="auto-start-reverse">
      <path d="M0,0 L10,5 L0,10 z" fill="#276148"/>
    </marker>
    <marker id="arrm" viewBox="0 0 10 10" refX="9" refY="5" markerWidth="7" markerHeight="7" orient="auto-start-reverse">
      <path d="M0,0 L10,5 L0,10 z" fill="#68706a"/>
    </marker>
  </defs>
  <style>
    text { font-family: "PingFang SC", "Microsoft YaHei", system-ui, sans-serif; fill: #2f3430; }
    .h { font-size: 15px; font-weight: 700; }
    .hb { font-size: 13.5px; font-weight: 700; fill: #276148; }
    .b { font-size: 13.5px; }
    .s { font-size: 12.5px; fill: #68706a; }
    .box { fill: #f4f5f2; stroke: #c9cec8; stroke-width: 1.5; }
    .accentbox { fill: #e8eee9; stroke: #a9bcb0; stroke-width: 1.5; }
    .head { fill: #e8eee9; stroke: #276148; stroke-width: 1.5; }
    .chip { fill: #fbfbfa; stroke: #c9cec8; stroke-width: 1.25; }
    .note { fill: #f4f5f2; stroke: #c9cec8; stroke-width: 1.5; }
    .edge { stroke: #276148; stroke-width: 2; fill: none; }
    .dash { stroke: #68706a; stroke-width: 2; fill: none; stroke-dasharray: 5 5; }
    .life { stroke: #c9cec8; stroke-width: 1.5; stroke-dasharray: 5 5; fill: none; }
    .spoke { stroke: #8b918b; stroke-width: 1.5; fill: none; }
    .divider { stroke: #c9cec8; stroke-width: 1.5; fill: none; }
    .outline { fill: none; stroke: #c9cec8; stroke-width: 1.5; }
  </style>

  <rect class="box" x="22" y="22" width="335" height="140" rx="8"/>
  <path class="divider" d="M22,62 L357,62"/>
  <rect class="head" x="22" y="22" width="335" height="40" rx="8"/>
  <rect class="head" x="22" y="48" width="335" height="14" rx="0"/>
  <path class="divider" d="M22,62 L357,62"/>
  <text class="hb" x="190" y="47" text-anchor="middle"><tspan x="190">链接（img / background-image）</tspan></text>
  <circle cx="42" cy="82" r="2.5" fill="#276148"/>
  <text class="b" x="52" y="86" text-anchor="start"><tspan x="52">和链接普通图片一样：干净、简单</tspan></text>
  <circle cx="42" cy="112" r="2.5" fill="#276148"/>
  <text class="b" x="52" y="116" text-anchor="start"><tspan x="52">页面正常缓存</tspan></text>
  <circle cx="42" cy="142" r="2.5" fill="#276148"/>
  <text class="b" x="52" y="146" text-anchor="start"><tspan x="52">SVG 内容对网页代码不可见——不能动态改</tspan></text>
  <rect class="box" x="383" y="22" width="335" height="140" rx="8"/>
  <path class="divider" d="M383,62 L718,62"/>
  <rect class="head" x="383" y="22" width="335" height="40" rx="8"/>
  <rect class="head" x="383" y="48" width="335" height="14" rx="0"/>
  <path class="divider" d="M383,62 L718,62"/>
  <text class="hb" x="551" y="47" text-anchor="middle"><tspan x="551">内联（代码直接贴进 HTML）</tspan></text>
  <circle cx="403" cy="82" r="2.5" fill="#276148"/>
  <text class="b" x="413" y="86" text-anchor="start"><tspan x="413">属性对 CSS / JavaScript 可见——可动态改图</tspan></text>
  <circle cx="403" cy="112" r="2.5" fill="#276148"/>
  <text class="b" x="413" y="116" text-anchor="start"><tspan x="413">代价：代码更难读、页面缓存性变差</tspan></text>
  <circle cx="403" cy="142" r="2.5" fill="#276148"/>
  <text class="b" x="413" y="146" text-anchor="start"><tspan x="413">大 SVG 可能延迟后续 HTML 加载</tspan></text>
  <rect class="note" x="22" y="176" width="696" height="34" rx="6"/>
  <text class="s" x="370" y="198" text-anchor="middle"><tspan x="370">官方建议：默认链接；只有要随 HTML 一起调 SVG 代码时才内联（学了 React / webpack 后内联缺点可规避）。</tspan></text>
</svg>
